/* XPM */
static char *_0a7eaa8af324772bc5cd5eea7e3ac2fRzihQZjYU28bPU62[] = {
/* columns rows colors chars-per-pixel */
"64 64 243 2 ",
"   c None",
".  c #271C0F",
"X  c #2C1F10",
"o  c #332213",
"O  c #3B2715",
"+  c #2F2111",
"@  c #462E19",
"#  c #472D18",
"$  c #4C331C",
"%  c #46321B",
"&  c #52351C",
"*  c #553A1E",
"=  c #5B3A1E",
"-  c #633C1F",
";  c #4C3721",
":  c #533B22",
">  c #5C3D21",
",  c #503720",
"<  c #633D21",
"1  c #5D4123",
"2  c #644324",
"3  c #6C4424",
"4  c #6C4A25",
"5  c #694A2A",
"6  c #774B28",
"7  c #7A532B",
"8  c #725433",
"9  c #7B6142",
"0  c #88562D",
"q  c #875C33",
"w  c #945D32",
"e  c #8B542C",
"r  c #876437",
"t  c #9B6436",
"y  c #936E2D",
"u  c #A26435",
"i  c #AC6D3A",
"p  c #A66839",
"a  c #B36E39",
"s  c #A97538",
"d  c #B2713B",
"f  c #B8793A",
"g  c #AE742C",
"h  c #AC6624",
"j  c #C56D0A",
"k  c #C76D0A",
"l  c #CA740D",
"z  c #C8720C",
"x  c #C47412",
"c  c #CB7A14",
"v  c #C87B18",
"b  c #C87C26",
"n  c #C27C37",
"m  c #987948",
"M  c #8D6F47",
"N  c #AD7544",
"B  c #BB7B42",
"V  c #B67844",
"C  c #B0764A",
"Z  c #C47D45",
"A  c #B4921E",
"S  c #9C822D",
"D  c #B68830",
"F  c #AD9622",
"G  c #CB851B",
"H  c #D38A18",
"J  c #D89718",
"K  c #D49611",
"L  c #DAA919",
"P  c #DAB51A",
"I  c #C9A31C",
"U  c #E2AA1B",
"Y  c #E3B719",
"T  c #CA8322",
"R  c #CB8928",
"E  c #D28C27",
"W  c #C99829",
"Q  c #D69B2D",
"!  c #D79927",
"~  c #CB8638",
"^  c #CB9835",
"/  c #D79A34",
"(  c #D08A3A",
")  c #C7A824",
"_  c #DCA529",
"`  c #DDAB2A",
"'  c #D9A727",
"]  c #DAB626",
"[  c #D9A638",
"{  c #DDB332",
"}  c #DDB93A",
"|  c #C7AE35",
" . c #E2AD2B",
".. c #E1AA24",
"X. c #E3B22D",
"o. c #E6BB29",
"O. c #E1AD37",
"+. c #E3BC34",
"@. c #E5BA38",
"#. c #E19E1A",
"$. c #E6C818",
"%. c #EDDC1B",
"&. c #DDC43A",
"*. c #DFC62C",
"=. c #E4C224",
"-. c #E5C32B",
";. c #EACA2B",
":. c #E6C637",
">. c #EBD538",
",. c #F1DC37",
"<. c #F0D326",
"1. c #F4E33D",
"2. c #DEC11A",
"3. c #9C8951",
"4. c #A58747",
"5. c #BC8448",
"6. c #B49747",
"7. c #AD9057",
"8. c #B9A553",
"9. c #A69969",
"0. c #A89E72",
"q. c #B19868",
"w. c #B7A669",
"e. c #ABA275",
"r. c #ABA77A",
"t. c #B4AC7C",
"y. c #B7A978",
"u. c #BBB17D",
"i. c #9E8F62",
"p. c #C48445",
"a. c #CC8B4B",
"s. c #C78747",
"d. c #D28D49",
"f. c #CC934A",
"g. c #D4944D",
"h. c #D49949",
"j. c #C98B52",
"k. c #CB9557",
"l. c #D39553",
"z. c #D59955",
"x. c #DA9C56",
"c. c #D69B5B",
"v. c #DA9D5A",
"b. c #D59657",
"n. c #DAA946",
"m. c #D7B946",
"M. c #DDA25C",
"N. c #D8A858",
"B. c #DBB458",
"V. c #CAAF4D",
"C. c #E3B44A",
"Z. c #E1A55E",
"A. c #E3B955",
"S. c #E1AE49",
"D. c #D69C62",
"F. c #C49061",
"G. c #DCA363",
"H. c #D8A969",
"J. c #D7BA68",
"K. c #C8B47C",
"L. c #D6B579",
"P. c #CBAB6C",
"I. c #E1A662",
"U. c #E2A966",
"Y. c #E3BD64",
"T. c #E2B673",
"R. c #DAC44C",
"E. c #E9C745",
"W. c #EAD747",
"Q. c #EAC858",
"!. c #F2DB56",
"~. c #EDD352",
"^. c #F6EA47",
"/. c #FAF34C",
"(. c #F4E75A",
"). c #FBF554",
"_. c #FBF65C",
"`. c #F6F155",
"'. c #EEE250",
"]. c #DBC568",
"[. c #D9C476",
"{. c #ECCC6C",
"}. c #E6C668",
"|. c #EDD465",
" X c #F1D765",
".X c #EACB73",
"XX c #EDD375",
"oX c #F4DB7A",
"OX c #F1D674",
"+X c #F1CF63",
"@X c #F7EA65",
"#X c #FBF663",
"$X c #FDF86C",
"%X c #FBF668",
"&X c #F6E47C",
"*X c #FEF973",
"=X c #FDF97B",
"-X c #FBF577",
";X c #B6AD81",
":X c #BCB484",
">X c #BCBA8B",
",X c #C1B583",
"<X c #C4BA86",
"1X c #C4BB8B",
"2X c #CBBC89",
"3X c #D7BA86",
"4X c #C6BF91",
"5X c #C6C18B",
"6X c #CCC595",
"7X c #C9C698",
"8X c #D6C997",
"9X c #DAC78E",
"0X c #EBD688",
"qX c #F3DE87",
"wX c #E7CA96",
"eX c #EBDA9C",
"rX c #E8CB8A",
"tX c #F6E483",
"yX c #F8EA85",
"uX c #F9EA8B",
"iX c #FDF98B",
"pX c #FCF786",
"aX c #F7E995",
"sX c #FDF99C",
"dX c #FCF796",
"fX c #D4CEA0",
"gX c #DBCFA1",
"hX c #D9D3A5",
"jX c #D8D5A7",
"kX c #D5D7AB",
"lX c #E4DCAD",
"zX c #EBDCAD",
"xX c #E6D7A8",
"cX c #E8DEB2",
"vX c #ECD7A4",
"bX c #F7EBA8",
"nX c #FCF5A9",
"mX c #E7E1B5",
"MX c #F4E7B7",
"NX c #FCF5B2",
"BX c #FDF9B3",
"VX c #EBE2AB",
"CX c #F6ECCA",
/* pixels */
"                                                                                                                                ",
"                                                                                                                                ",
"                                                                                                                                ",
"                                                    S ) P $.$.$.$.$.P P ) S                                                     ",
"                                              ] $.%.%.%.$.$.Y U U Y U Y U L L L J D                                             ",
"                                        ) $.$.$.Y K K H ! ! / / ! Q ! E H H H K #.U L W                                         ",
"                                    P Y P L K L _ [ n.n.C.C.A.A.A.A.A.S.S.h./ ! E H #.#.U )                                     ",
"                                A L L K J ! [ n.B.Q.}..X{.XXXXXXOXOXOX{.{.{.+XY.C.n.! H J U ..W                                 ",
"                              I K K J / n.B.].}.{.XXoXoX&X&X&XtXqXtXqXqXtXqXoXXXXX{.A.S./ ! #. .X.                              ",
"                          I L J J / n.B.B.]..XXXXXoXoX&XtXtXyXyXyXuXuXuXaXaXaXaXqXqXoXOXQ.S._ #...-.)                           ",
"                        A L L J [ n.B.J.{..X.XXXOXoXoX&X&XtXyXyXuXuXuXaXuXaXnXbXbXbXaXqXoXOXY.O._  .:.|                         ",
"                      ) P Y ! Q n.B.J.}..X{..XXX.X].J.].XX].J.].[.J.[.[.w.3XaXbXnXNXbXaXaXtXoX+XS._ ` E.}                       ",
"                    ) o.o.' G R h.n.B.}.}..X{.J.k.7.4.4.4.4.m 7.4.m 4.m r m [.aXbXNXNXNXbXaXtXoXOXC./ O.E.m.                    ",
"                  ) P -._ H A R ^ [ n.n.A.Q.J.7.m r 7 4 7 7 7 7 8 6 4 4 4 5 M K.9XeXVXzXbXNXbXuXtXOXA.O.O.~.R.                  ",
"                  =.;.O.G v T E ^ / [ O.n.f.S r q 7 3 * 2 4 4 3 2 1 1 1 * > 5 M m i.P.P.9XVXnXnXuXtXOXA.Q C.|.                  ",
"                =.>.} R v T R ^ / [ [ S.| y 2 * 2 4 = & = = = # @ & $ * & * > 1 < 8 9 M i.9XMXNXnXuX&XoXA.Q Q. X                ",
"              *.:.E.^ v G T ( Q / [ [ [ D 5 * % @ , & & = & & # O % # # # # # # % : < 6 q q.eXNXBXnXuXtXOXS./ }.}.              ",
"            | ;.~.[ v v T R E E Q / [ S 4 , % O @ # & > = = # # O O O o o o o o o O @ : < M <XMXBXNXnXuXtX XO.n.0XV.            ",
"            $.W.A.T x T T R E Q ^ D g 4 , $ % O # & > - > = - & # O o X . . . X . o o @ , 8 q.bXNXNXnXdXuX&X}./ A.oX            ",
"          ) :.OX^ x v v T R W ^ s q 5 1 , $ ; @ = < 3 3 3 0 e 6 - & # # o . . . . X o O @ < i.eXNXBXBXnXuXyXoXm.Q 0XV.          ",
"          ;.(.B.b x v T T E W D q 1 1 : $ $ , < 7 e w e w d a u w 0 - - & # O X . X o o # < i.xXBXBXBXBXsXuXyX{./ A.qX          ",
"        &.*.qX^ x v v G G ! D 7 1 : : , $ , 2 7 t f f B p.s.g.d.p.f p w e e - & o o o o @ > m wXNXBXBXBXnXdXyXoXA./ vX8.        ",
"        ;.~.Y.b x c v v E E g 4 : : : : > 5 6 t B k.l.z.g.g.x.x.x.l.d.a.Z a u 6 & # o O $ > 8 K.bXnXBXBXBXsXuXyX+X/ Y.0X        ",
"        =.aXh.x x v v G H D r 1 : : : 1 5 6 7 t s.z.v.M.x.Z.x.Z.Z.Z.Z.v.b.a.n u e - & # : 2 8 3.0XnXnXnXBXsXiXuXoXS./ MX        ",
"      | -.vX( k x c v G E s 4 1 ; ; 1 1 1 3 0 s j.v.v.v.x.Z.M.Z.Z.Z.Z.Z.v.l.d.Z d t 0 < 1 5 5 m [.dXsXsXnXsXdXyX&XQ.E vXk.      ",
"      ,.~.L.T l x c c H H y 5 1 : 1 1 ; = 3 q B z.v.x.v.x.M.Z.Z.I.I.U.I.Z.x.x.b.j.B p 6 5 2 5 D XXiXdXsXdXsXpX@X@XQ.! Y.0X      ",
"      <.qXh.x k l c c G R y 1 @ $ , ; $ - 0 s j.l.v.v.v.I.G.I.I.I.I.I.U.I.v.v.v.v.a.V 0 5 7 s V.@XiXdXsXsXsXiX@X@X~._ n.CX      ",
"      <.MX( k z c c c c T q ; O % ; ; : 0 d p.f.x.v.v.z.k.5.s.k.v.G.U.U.U.I.Z.I.v.j.5.s s 5.N.XX-XpXiXdXsXnXdX-X@XQ.O.( CX      ",
"      o.MX~ k k l c c H b 6 @ @ ; , $ 4 i a.l.z.v.l.5.i t w 0 0 N 5.j.D.G.U.U.U.G.k.k.p.^ B.&X=X=XpXiXiXsXsXdX-X@X!.@.E CX4.    ",
"    | -.zXb k l l l c E f V u < : , 1 w j.z.v.v.z.b.a.5.B N t 6 < < e C j.D.G.D.G.G.z.N.B.@X$X$X-X=XpXiXdXsXdXpX@X!.C.E VX6.    ",
"    &.:.wXb k k l l c b a u p e * * 3 p j.x.M.M.v.f.s.V i u t N w 6 e w C F.D.D.D.D.v.N.}.@X$X$X*X=XpXpXiXdXsXiX%X!.:.E 0XP.    ",
"    *.Q.wXb k k l c c Z n Z V e 6 q M p.c.M.M.M.M.j.V t 6 > > 2 e M u w w C Z D.c.b.b.N.}.@X$X$X$X*X=XpXiXdXdXiX@X(.E.E .XJ.    ",
"    -.~.wXb k k l c b Z Z Z Z u e 7 t D.U.U.Z.U.3X3XD.C t q 8 ; < e w p u C j.j.j.j.j.V.].@X$X$X$X$X=X=XpXiXdXiX@X(.E.! T.J.    ",
"    -.Q.wXv k k l c b Z Z Z a u p t V z.M.U.T.3XgXgXxXvX3XF.C C e w u i Z k.b.j.d p N 7 6.@X_.#X$X$X*X=XpXpXiXiX@X(.:.! OXH.    ",
"    :.Q.wXb k k l l b x.Z Z u u Z j.f.z.v.M.G.3XgXcXcXcXcXgX3X5.u C V Z l.Z.D.V 0 - 4 y m._._.#X$X$X*X=X=XpXpXpX@X!.E.E 0XP.    ",
"    ' C.vXb k k l l Z D.Z Z a Z l.j.k.z.x.v.T.xXzXcXcXcXcXcXzXxX3XD.b.b.Z.U.H.t 6 3 2 y R.)._._._.$X$X*X-XpXpXpX(.'.@.! zXV.    ",
"    | @.MXb k k l l c b a.d.Z Z a.l.l.z.x.G.rXlXhXlXlXcXVXmXmXcXcXvXeXwXwXwXeXP.5 3 7 D '.).)._.#X$X$X$X*X=XpX-X(.!.@.E CX6.    ",
"      o.CXb k k l l c b ( g.b.d.a.f.l.x.v.U.wXfXjXhXhXgXjXjXlXlXxXzXzXzXvXzXzXfX9 - 7 | /.).).)._._.$X$X*X*X-X-X(.~. ./ CX      ",
"      o.MXZ k k l l c c b p.l.d.s.a.z.x.v.L.gXfXkXkXkXfXfXkXkXkXjXlXxXxXzXxXxX8X4.6 y >././.).)._._.$X$X*X*X-X%X(.E...x.CX      ",
"      =.qXZ.l k l l l c h g Z s.B f g.x.D.3X7X4X7XkXmXkXkXmXlXmXmXcXcXzXzXcXxX8X7.9 | 1./././.).)._._.$X$X*X$X@X(.@.! .XeX      ",
"      :.~.rX~ k k z z c x s V p.j.j.c.G.L.2X>X1X7XfX7X7XkXmXmXmXcXmXmXlXlXlXfX8X3X6.&.^././././.)._._.#X%X%X-X(.!.X.E vX}.      ",
"        +.bXh.v v c l l g ~ p.p.j.H.H.L.K.:X4X7XfXfXfX7X>X4X>XfXkXcXmXkXkXfX6X8X8X].,.1.1./././.).`._.#X%X%X@X'.E.../ MX4.      ",
"        =.yXU.R v T T b ~ p.p.5.j.L.<X<X:Xu.;X7XjXfXjX7X>X>X>X>X5X8XhXhX7X>X:X5X9XW.1.^.1.^./././.`._.#X#X%X(.'.@.! U.eX        ",
"        ] E.0X^ D ~ 5.( ~ p.s.s.j.P.K.2X5X>Xt.t.5XfXkXfX7X7X7X>X>X1X4X1Xt.r.u.5X].W.,.1.1.^.^.^./.).`.`.#X(.'.E. .! qXY.        ",
"          =.&Xn.( s.a.s.s.s.a.g.f.k.L.2X5X5X5Xu.t.5XfXjXfX7X6X6X6X1X>X;Xr.r.:X5X~.,.,.1.1.1.^.^././.`.`._.(.W.} _ n.0X          ",
"          =.W.{.g.( ( p.d.a.g.g.f.k.L.2XK.<X6X<Xt.u.5XfXjX8X8X8X6X1X;Xr.r.;Xt.K.>.,.,.,.1.1.1.^.^.`.`.`.`.W.R.` / .XQ.          ",
"            o. Xn.( ~ d.d.g.g.g.g.k.P.3XK.u.1X2X:X:X,X4XfXfX8X6X1Xt.e.e.r.;Xr.R.:.,.,.,.>.^.W.^.^.`.`.'.'.E. ._ S.}.|           ",
"            ] >.A.d.~ d.g.h.g.g.a.a.P.L.K.y.u.5X,X,X<X2X4X6X4X<Xt.e.e.r.;Xr.8.&.;.>.;.>.>.>.,.W.W.^.'.'.W.{ ! Q A.E.            ",
"              ] E.B.d.d.g.g.g.d.s.s.k.3X,Xy.y.<X<X,X<X<X<X,X:Xy.e.e.y.t.t.w.m.-.;.;.>.>.>.>.W.>.W.'.W.W.} ! J n.E.              ",
"              I =.W.S.h.g.g.d.s.Z Z j.P.L.y.e.u.<X,Xu.u.u.r.e.0.e.;X;Xy.w.V.-.-.*.;.;.:.>.&.>.W.W.W.&.&.! H ! @.:.              ",
"                ) ;.W.S.g.d.s.Z Z d V k.P.y.y.u.:X<Xu.y.e.e.9.0.e.;Xu.w.V.*.-.=.=.;.;.:.&.>.>.W.W.&.&.) K J ` @.                ",
"                  ] ;.W.n.s.Z f d d s f k.y.w.e.u.u.K.y.0.0.0.0.e.e.w.V.} -.+.-.*.*.&.*.&.&.:.&.&.{ ) H H _ :.                  ",
"                    ] >.:.s.f d a d a d B 7.q.9.e.y.y.e.9.0.e.e.e.w.V.` +.+.+.:.:.@.&.@.} &.&.} { I H H L o.E.                  ",
"                      ] -.[ 5.d i a d i i N 7.7.i.7.9.i.3.9.e.9.q.[ { X.X.+.+.@.m.:.:.R.&.@.{ ` J G K U Y                       ",
"                        ] ] ^ f a i i u u u f 6.D 4.7.3.3.3.7.7.| { X.X.+.{ +.} } @.} m.} m.[ ! H J U Y P                       ",
"                          ] ] ) W f g u u u D ! ` _ ' W W ^ | | O.`  .]  .{ { { } } O.} { [ Q J L P Y                           ",
"                            ) ] =.] D g s D ! _ .._ _ ` _ ` ` ` _ _ ` ] ` ` { { O.{ ` [ Q ! L U Y ]                             ",
"                              A P ] =.] ! ' ...._ _ .._ _ _ _ ` ` ` ` ` { ` ` `  .O._ ....U Y Y )                               ",
"                                  W P +.;.;.o. ... ..._ ` ..` ..` ` ` ` ` ` ` `  . . .X.o.Y P                                   ",
"                                      W ] @.~.>.;.o.o.X.X. . . ...` ` `  .O. .@.@.E.:.-.P                                       ",
"                                          A P +.Q.+X!.E.>.:.o.o.o.o.@.E.E.+X XQ.:.o.)                                           ",
"                                                A I ..+.R.W.+X+X X+XQ.Q.:.o.] A                                                 ",
"                                                          y D S A D S                                                           ",
"                                                                                                                                "
};
