/* XPM */
static char *_a7c2603fa564ee9f6f9ec5cd87e5d46WcOQ4fzCVT2ihSBf[] = {
/* columns rows colors chars-per-pixel */
"16 16 171 2 ",
"   c None",
".  c #2D2011",
"X  c #372513",
"o  c #3B2916",
"O  c #3C2815",
"+  c #4B321D",
"@  c #54341E",
"#  c #5B391C",
"$  c #513A22",
"%  c #543C22",
"&  c #634223",
"*  c #684627",
"=  c #684927",
"-  c #73502A",
";  c #7A552D",
":  c #7E5C29",
">  c #735531",
",  c #775937",
"<  c #845F29",
"1  c #855E2D",
"2  c #88582F",
"3  c #90592F",
"4  c #8A5B32",
"5  c #905D31",
"6  c #9A6436",
"7  c #A36537",
"8  c #A96B3A",
"9  c #AF6E39",
"0  c #CB760E",
"q  c #CD7B12",
"w  c #CB7B15",
"e  c #C87318",
"r  c #C87B19",
"t  c #CA781E",
"y  c #C97D1C",
"u  c #CE7E1C",
"i  c #AB7944",
"p  c #B67040",
"a  c #B57944",
"s  c #BD7F46",
"d  c #BA921C",
"f  c #BE8328",
"g  c #BA8A32",
"h  c #AE9435",
"j  c #B3993D",
"k  c #BEA737",
"l  c #D99C15",
"z  c #D0961D",
"x  c #CCA31C",
"c  c #D5AA1A",
"v  c #C88620",
"b  c #CC8A25",
"n  c #CF8D29",
"m  c #DB9D24",
"M  c #DA9C2D",
"N  c #CD8431",
"B  c #CE873D",
"V  c #CD9D35",
"C  c #C3A227",
"Z  c #CBAF2D",
"A  c #DEA929",
"S  c #DDAB2A",
"D  c #DDA92D",
"F  c #DCAC2C",
"G  c #CAA530",
"H  c #D9AF35",
"J  c #D7A33C",
"K  c #DCBC36",
"L  c #DBB538",
"P  c #E0AA28",
"I  c #E1AD2E",
"U  c #E2B42C",
"Y  c #E1B934",
"T  c #E7BA3A",
"R  c #E0BE3E",
"E  c #E6C82F",
"W  c #E5C53F",
"Q  c #E6D03C",
"!  c #F0D935",
"~  c #BA8046",
"^  c #B99F4D",
"/  c #A3895E",
"(  c #AD9453",
")  c #A5955E",
"_  c #B0A375",
"`  c #B8AB76",
"'  c #B3AF7B",
"]  c #B8A97D",
"[  c #C28347",
"{  c #C48444",
"}  c #C3864A",
"|  c #CE8C49",
" . c #CA8D4E",
".. c #D28D4D",
"X. c #C39F4E",
"o. c #D39543",
"O. c #D0924F",
"+. c #D3934F",
"@. c #D4934D",
"#. c #D3975E",
"$. c #D39959",
"%. c #D69C5C",
"&. c #D99D59",
"*. c #DA9C59",
"=. c #DC9D5A",
"-. c #DDA941",
";. c #DDAA40",
":. c #D8A946",
">. c #D1B34C",
",. c #DDA35C",
"<. c #E1AD47",
"1. c #E5B644",
"2. c #E6B951",
"3. c #E0B55B",
"4. c #D0A467",
"5. c #DFAA67",
"6. c #CAA477",
"7. c #D3B176",
"8. c #E2A863",
"9. c #E5BF67",
"0. c #E7C542",
"q. c #E2C941",
"w. c #EECA4A",
"e. c #EFCD49",
"r. c #E8D44B",
"t. c #EAC55F",
"y. c #E7CB59",
"u. c #F1E140",
"i. c #FAEF47",
"p. c #F6EE50",
"a. c #FCF652",
"s. c #FAF558",
"d. c #FAF15E",
"f. c #F0D36F",
"g. c #E9CB70",
"h. c #F4DA7A",
"j. c #F8EB6A",
"k. c #F6F063",
"l. c #FCF864",
"z. c #FEF971",
"x. c #FCF778",
"c. c #FEFA7F",
"v. c #B6AE80",
"b. c #BDB786",
"n. c #C0B481",
"m. c #C9B681",
"M. c #C1B886",
"N. c #C6BC88",
"B. c #DDBD86",
"V. c #C2C091",
"C. c #C8C094",
"Z. c #D3CB9A",
"A. c #F7E781",
"S. c #F6E18B",
"D. c #F9EA8C",
"F. c #FDF98A",
"G. c #F8E999",
"H. c #FBF192",
"J. c #FCF791",
"K. c #FDF890",
"L. c #FEFA98",
"P. c #D2CFA0",
"I. c #D9D6A7",
"U. c #DCD5A6",
"Y. c #DDD6AA",
"T. c #E5D6A7",
"R. c #E7DBAB",
"E. c #EADAAA",
"W. c #F7EDA8",
"Q. c #FCF5AC",
"!. c #FEF9B1",
/* pixels */
"                                ",
"          c D ;.;.M z           ",
"      d :.g.h.A.D.G.S.2.G       ",
"    Z v J X.; - = > m.W.f.>.    ",
"    b n g + @ # O . O / Q.t.    ",
"  y.r f % * } +.[ 3 X , !.H.3.  ",
"  o.w : $ 5 &.,.8.&.a < K.J.1.  ",
"  t q 7 & &. .6 2 #.&.j.F.L.w.  ",
"  e u p ~ 5.T.6.8 $.4 d.z.F.e.  ",
"  N 0 ..O.B.U.Y.E.E.< a.l.x.T   ",
"  t.y { 7.b.P.V.U.C.r.i.s.k.<.  ",
"  k B @.4.N.M.Z.v.' ! u.p.W ^   ",
"    0. .~ ` n._ ] K E Q q.m     ",
"      V 9 i ( ) H Y R L l       ",
"        C U P A S F I x         ",
"              h j               "
};
