/* XPM */
static char *a8274e24363b457dc6f33e13aa142bfbdbegJenVrVLhCc11[] = {
/* columns rows colors chars-per-pixel */
"32 32 228 2 ",
"   c None",
".  c #271C0F",
"X  c #2B1F10",
"o  c #311F12",
"O  c #332212",
"+  c #3E2914",
"@  c #392818",
"#  c #472C19",
"$  c #4D321B",
"%  c #433018",
"&  c #54361C",
"*  c #53391D",
"=  c #5B3B1E",
"-  c #61371E",
";  c #4F3821",
":  c #523B22",
">  c #5A3D22",
",  c #613C20",
"<  c #60401F",
"1  c #574329",
"2  c #644525",
"3  c #6B4928",
"4  c #744625",
"5  c #714D2B",
"6  c #7D4D28",
"7  c #7B522A",
"8  c #6D522E",
"9  c #977B1A",
"0  c #88552C",
"q  c #835D39",
"w  c #985B2F",
"e  c #87643A",
"r  c #986336",
"t  c #8B6F2C",
"y  c #AC6C3A",
"u  c #A46639",
"i  c #AD713D",
"p  c #AB7433",
"a  c #B3713B",
"s  c #B47133",
"d  c #C46C0A",
"f  c #CA740C",
"g  c #C4710D",
"h  c #C57411",
"j  c #CC7B12",
"k  c #C47C1B",
"l  c #CA7D19",
"z  c #C67814",
"x  c #9E7E4A",
"c  c #AC7543",
"v  c #B87844",
"b  c #C57E46",
"n  c #BC843B",
"m  c #A8922F",
"M  c #BCA635",
"N  c #CC821A",
"B  c #D1851C",
"V  c #D48A1C",
"C  c #D48715",
"Z  c #D9951B",
"A  c #D6910E",
"S  c #DAA615",
"D  c #D5A919",
"F  c #E6AD1A",
"G  c #E1A813",
"H  c #E6BC15",
"J  c #E3B91B",
"K  c #CC8422",
"L  c #CE8D29",
"P  c #D48C23",
"I  c #D79828",
"U  c #C98538",
"Y  c #D79B34",
"T  c #CD9330",
"R  c #DCA629",
"E  c #DDAB2B",
"W  c #D5A62A",
"Q  c #DBB128",
"!  c #D9A239",
"~  c #DAB737",
"^  c #C5A224",
"/  c #E2AC28",
"(  c #E3A123",
")  c #E2BC23",
"_  c #E6BA2A",
"`  c #E4BC34",
"'  c #E3B83A",
"]  c #E0AF3F",
"[  c #F2DB18",
"{  c #E7C117",
"}  c #DFC63D",
"|  c #EAC624",
" . c #E3C22B",
".. c #E9C825",
"X. c #E3C235",
"o. c #E3CB37",
"O. c #F0CE39",
"+. c #ECD538",
"@. c #F0DD3B",
"#. c #F4E23B",
"$. c #F7E83F",
"%. c #98854A",
"&. c #A7874C",
"*. c #BF844B",
"=. c #A58859",
"-. c #B59653",
";. c #B18050",
":. c #BEA857",
">. c #9B8E61",
",. c #A99F72",
"<. c #A59D70",
"1. c #AC9564",
"2. c #AAA678",
"3. c #B4AA75",
"4. c #B2AD7D",
"5. c #B5A87A",
"6. c #BBB27F",
"7. c #BDA06B",
"8. c #C48346",
"9. c #C4844A",
"0. c #CC8C4B",
"q. c #C98749",
"w. c #D38C49",
"e. c #D5944D",
"r. c #D99D46",
"t. c #CD9253",
"y. c #CD995E",
"u. c #D49554",
"i. c #D59A57",
"p. c #D99B56",
"a. c #D59B5B",
"s. c #DB9D5A",
"d. c #D79559",
"f. c #C98E4F",
"g. c #D8A644",
"h. c #D7B546",
"j. c #C2AA59",
"k. c #DDA15C",
"l. c #DBAA5F",
"z. c #DAB459",
"x. c #C9B04B",
"c. c #E0A45E",
"v. c #E4B957",
"b. c #E1B147",
"n. c #D89B61",
"m. c #DDA464",
"M. c #DEAF6F",
"N. c #CAB779",
"B. c #D2AE76",
"V. c #E2A864",
"C. c #E5BC61",
"Z. c #E4B270",
"A. c #E6C546",
"S. c #E9D548",
"D. c #E6CA57",
"F. c #EDD457",
"G. c #F3DB58",
"H. c #F5E847",
"J. c #FAF34B",
"K. c #FAF047",
"L. c #F5E25C",
"P. c #F3E957",
"I. c #FBF554",
"U. c #FBF65B",
"Y. c #FDF85F",
"T. c #E8C76A",
"R. c #F0D66E",
"E. c #F3D869",
"W. c #EBCC71",
"Q. c #EFD576",
"!. c #F4DB7A",
"~. c #F2DB74",
"^. c #EFD364",
"/. c #FBF664",
"(. c #FDF864",
"). c #FBF56C",
"_. c #FEF96C",
"`. c #F7F068",
"'. c #F6E17E",
"]. c #FEF974",
"[. c #FEFA7A",
"{. c #FBF477",
"}. c #F9EC6B",
"|. c #BCB584",
" X c #BAB788",
".X c #BDAD81",
"XX c #C2B682",
"oX c #C4BB8C",
"OX c #C9BC8B",
"+X c #C3B987",
"@X c #D5BA85",
"#X c #E3B98B",
"$X c #E4BD92",
"%X c #D6C38A",
"&X c #CCC393",
"*X c #CECA9A",
"=X c #CCC798",
"-X c #D5CB9B",
";X c #DDC295",
":X c #F4DD89",
">X c #E2CC96",
",X c #E9D699",
"<X c #E0C08C",
"1X c #F7E582",
"2X c #FAED8B",
"3X c #F8E785",
"4X c #FEFA82",
"5X c #FDFA8A",
"6X c #FCF587",
"7X c #F7EA96",
"8X c #FEFA93",
"9X c #FEFA9D",
"0X c #D2CFA0",
"qX c #D6D2A2",
"wX c #D9D6A8",
"eX c #E4DBAE",
"rX c #E7D8A8",
"tX c #EDDCB6",
"yX c #F0DCAA",
"uX c #F8E8A6",
"iX c #FCF3AB",
"pX c #FDF6A7",
"aX c #E7E4B7",
"sX c #F3E5B7",
"dX c #FCF5B3",
"fX c #FEF9B5",
"gX c #EDE5A8",
"hX c #F7EDC6",
/* pixels */
"                    Q [ [ H S G G F G I                         ",
"              t H S V ! z.z.D.C.v.v.! N Z F t                   ",
"            F A ! z.W.Q.'.'.3X3X3X:X!.Q.T.Y Z _                 ",
"          S I z.C.W.Q.!.'.{.3X6X2X7XiXuX3X!.^.V O.              ",
"        J I T z.T.W.T.-.&.-.&.x &.e ,XdXdXpX1X!.I F.            ",
"      ..I N T ! ] h.e 0 < 3 5 2 2 = 5 1.%X,XdX7X!.R ~.          ",
"    ..h.k L T ! ] 5 $ = * * $ % $ & * * 5 e gXdX2X1XP '.        ",
"  ~ ~.h K L W ! 5 $ @ # = = $ + @ X X . + : =.fXfX2X!.P z.      ",
"  +.n z K I n 2 > ; $ 4 4 0 w - # O . . O % 7 dXfXpX2Xv.:X      ",
"~ 7Xg z K L 3 : ; 1 0 *.9.w.u.q.a w 4 o O % 8 pXfXfX6X1XB j.    ",
"..T h N K p ; > 1 5 u a.k.s.c.c.c.d.b 0 : $ 3 6.pXdXpX2Xb.sX    ",
"R.d f l P 8 : > * 3 *.i.s.s.c.V.c.c.d.q.c 3 1 z.5X9X9X`.^.C.    ",
"hXd f j V > @ ; , s u.k.s.t.y.m.V.V.k.V.*.w f.~.5X9X9X}.G.P %.  ",
"tXd j j U r - : r u.p.i.*.c 0 4 c n.m.m.i.g./.].[.8X9X{.G.V %X  ",
"#Xd d j c v - , f.k.k.0.i 7 7 r 0 u d.n.a.T.(._.[.5X9X4XL.V ,X  ",
"#Xd f l b q.c 0 a.Z.M.-XB.v q 4 u c y.v 9.j.(._.].4X5X6XL.Z rX  ",
"$Xd f B 0.y 9.0.a.k.>XaXtXrX@Xc 8.s.c.0 & ~ U.(._.[.4X6XL.Z >X  ",
"tXd f j b d.b u.i.m.eXwXeXtXtXsXyXrXrX> e J.I.Y.(.].4X{.F.V N.  ",
"hXd d f k d.w.0.k.%X0XwXqXqXqXwXrXrXrXv 7 J.I.I.(._.].`.S.g.t   ",
"Q.d d f j b y.u.s.OX X0XwXaXaXaXaXeX0X;Xo.K.J.I.U.(._.P.` ,X    ",
"_ V.K K n 8.b @XXX5.qXqX-X X4.=XeX=X X-X$.$.K.J.I././.G.Z 7X    ",
"m 2XU e.U 0.0.j.OX&X3.=XwX*X=XoX X,. XS.#.#.H.J.P.U.P.' ! *.    ",
"  J r.U w.e.0.k.N.6.&X6.OXwX-XoX,.2..X+.@.@.@.K.J.P.S.I Q.      ",
"  m ^.U e.e.0.0.%X3.&X6.+XoX.X<..X.X:...+.+.+.S.P.S.R ! M       ",
"    J F.e.0.8.v B.5.6.+X3.3.,.5..Xj... .o.o.+.S.S.W C `         ",
"      | A.b a a a 7.3.XX6.<.<.2.:.` X.`  .X.} } ^ N |           ",
"        | *.y a s c =.=.>.>.,.x.` ` ' ' } } ~ Z C H             ",
"          ) W p r p W R I W W E E E ~ ~ ~ ~ I Z {               ",
"            ^  .Q W R / / R E E E E ~ E E ( J Q                 ",
"                W A.O.) / E / / E E / ' A.)                     ",
"                    9 / A.^.E.R.E.F.` 9                         ",
"                                                                "
};
